<svg xmlns="http://www.w3.org/2000/svg" xmlns:xlink="http://www.w3.org/1999/xlink" width="248.441" height="154.993" viewBox="0 0 248.441 154.993">
  <defs>
    <clipPath id="clip-path">
      <path id="Path_14" data-name="Path 14" d="M240.189,6121.244H167.746a2.736,2.736,0,0,1-2.746-2.727V5966.251h77.935v152.266a2.737,2.737,0,0,1-2.746,2.727" fill="none" clip-rule="evenodd"/>
    </clipPath>
    <clipPath id="clip-path-2">
      <rect id="Rectangle_46" data-name="Rectangle 46" width="1442.227" height="6219" transform="translate(73.93 5966.251)" fill="none"/>
    </clipPath>
    <clipPath id="clip-path-3">
      <path id="Path_15" data-name="Path 15" d="M211.093,6073.958H184.7a3.92,3.92,0,0,0-3.935,3.906v24.5a3.1,3.1,0,0,0,2.9,3.115,3.046,3.046,0,0,0,3.208-3.026v-21.438a1,1,0,0,1,1-.994h23.26a9.845,9.845,0,0,1,9.933,9.511,9.745,9.745,0,0,1-9.769,9.886h-.814l-.408,0v.032a3.025,3.025,0,0,0,0,5.993v.034h1.222a15.762,15.762,0,1,0-.2-31.52" fill="none" clip-rule="evenodd"/>
    </clipPath>
    <clipPath id="clip-path-5">
      <path id="Path_16" data-name="Path 16" d="M193.021,6051.19a3.5,3.5,0,1,0,3.5-3.5,3.506,3.506,0,0,0-3.5,3.5" fill="none" clip-rule="evenodd"/>
    </clipPath>
    <clipPath id="clip-path-7">
      <path id="Path_17" data-name="Path 17" d="M208.783,6051.19a3.5,3.5,0,1,0,3.5-3.5,3.506,3.506,0,0,0-3.5,3.5" fill="none" clip-rule="evenodd"/>
    </clipPath>
    <clipPath id="clip-path-9">
      <path id="Path_18" data-name="Path 18" d="M223.965,6018.795a3.079,3.079,0,0,0-2.9,3.081v38.1a.992.992,0,0,1-1,.983H196.8a9.8,9.8,0,0,1-9.932-9.407,9.688,9.688,0,0,1,9.768-9.777h14.99a3.09,3.09,0,0,0,3.138-2.847,3.026,3.026,0,0,0-3.05-3.148H196.842a15.593,15.593,0,1,0-.2,31.175h26.6a3.9,3.9,0,0,0,3.935-3.864v-41.3a3.032,3.032,0,0,0-3.207-2.993" fill="none" clip-rule="evenodd"/>
    </clipPath>
    <clipPath id="clip-path-11">
      <path id="Path_20" data-name="Path 20" d="M264.826,6086.833v-27.75a1.75,1.75,0,0,1,1.734-1.763h2.5a5.923,5.923,0,0,1,4.923,2.308l16.993,21.553v-21.849a2,2,0,0,1,1.978-2.012h.539a2,2,0,0,1,1.978,2.012v27.749a1.748,1.748,0,0,1-1.734,1.763h-2.419a5.785,5.785,0,0,1-4.879-2.307l-17.122-21.858v22.154a1.994,1.994,0,0,1-1.978,2.011H266.8a2,2,0,0,1-1.978-2.011" fill="#42465e" clip-rule="evenodd"/>
    </clipPath>
    <clipPath id="clip-path-12">
      <rect id="Rectangle_57" data-name="Rectangle 57" width="1442.227" height="6219" transform="translate(73.93 5966.251)" fill="#42465e"/>
    </clipPath>
    <clipPath id="clip-path-13">
      <path id="Path_22" data-name="Path 22" d="M301.118,6086.707a2,2,0,0,1,2.206-2,69.187,69.187,0,0,0,13.739.438c4.969-.566,6.179-2.348,6.179-4.393,0-3.044-4.106-4.045-8.858-4.828-6.309-1.218-13.7-2.566-13.655-9.568,0-2.958.605-4.828,2.9-6.568,3.18-2.412,9.879-3.075,22.853-1.911a2.01,2.01,0,0,1-.323,4.006c-16-1.166-18.339.561-18.339,3.646,0,7.394,22.685,1.436,22.685,14.7-.086,3.349-.95,6.045-5.184,7.916-3.869,1.532-10.874,2.2-22.433.829a2.009,2.009,0,0,1-1.766-2Z" fill="#42465e" clip-rule="evenodd"/>
    </clipPath>
    <clipPath id="clip-path-14">
      <rect id="Rectangle_60" data-name="Rectangle 60" width="1442.227" height="6391.75" transform="translate(73.93 5962.821)" fill="#42465e"/>
    </clipPath>
    <clipPath id="clip-path-15">
      <path id="Path_24" data-name="Path 24" d="M337.9,6088.844c-2.762,0-3.9-1.132-3.9-3.919v-23.686c0-2.786,1.139-3.919,3.9-3.919h7.717c7.058,0,12.1.915,15.3,2.526a9.585,9.585,0,0,1,3.858,3.179c1.885,2.656,2.5,5.66,2.5,10.057,0,4.355-.614,7.359-2.5,10.015-2.8,3.918-8.462,5.617-19.159,5.747Zm8.506-4.005c5.042,0,8.549-.827,10.435-2.483s2.849-4.745,2.849-9.317c0-4.485-.965-7.576-2.849-9.23s-5.393-2.483-10.435-2.483h-3.683a1.159,1.159,0,0,0-1.316,1.307v20.9a1.159,1.159,0,0,0,1.316,1.307Z" fill="#42465e" clip-rule="evenodd"/>
    </clipPath>
    <clipPath id="clip-path-17">
      <path id="Path_26" data-name="Path 26" d="M375.559,6088.844c-2.761,0-3.9-1.132-3.9-3.919v-23.686c0-2.786,1.14-3.919,3.9-3.919h7.717c7.058,0,12.1.915,15.3,2.526a9.578,9.578,0,0,1,3.858,3.179c1.885,2.656,2.5,5.66,2.5,10.057,0,4.355-.613,7.359-2.5,10.015-2.806,3.918-8.462,5.617-19.159,5.747Zm8.506-4.005c5.042,0,8.549-.827,10.434-2.483s2.85-4.745,2.85-9.317c0-4.485-.964-7.576-2.85-9.23s-5.392-2.483-10.434-2.483h-3.683a1.158,1.158,0,0,0-1.314,1.307v20.9a1.158,1.158,0,0,0,1.314,1.307Z" fill="#42465e" clip-rule="evenodd"/>
    </clipPath>
    <clipPath id="clip-path-19">
      <path id="Path_28" data-name="Path 28" d="M410.475,6059.843l-1.064-1.931v2.248h-.485v-2.84h.6a.439.439,0,0,1,.493.3l1.138,2,1.142-2.009a.478.478,0,0,1,.521-.3h.617v2.84h-.781v-2.248l-1.061,1.931a.559.559,0,0,1-.566.345.549.549,0,0,1-.558-.345" fill="#42465e" clip-rule="evenodd"/>
    </clipPath>
    <clipPath id="clip-path-20">
      <rect id="Rectangle_69" data-name="Rectangle 69" width="7.265" height="3.503" transform="translate(408.319 6057.177)" fill="#42465e"/>
    </clipPath>
    <clipPath id="clip-path-21">
      <path id="Path_30" data-name="Path 30" d="M406.091,6060.188V6057.7h-1.253v-.38h3.384v.38H406.97v2.487Z" fill="#42465e" clip-rule="evenodd"/>
    </clipPath>
    <clipPath id="clip-path-22">
      <rect id="Rectangle_72" data-name="Rectangle 72" width="1442.227" height="5270.446" transform="translate(72.96 5978.657)" fill="#42465e"/>
    </clipPath>
  </defs>
  <g id="footer-logo" transform="translate(-165 -5966.251)">
    <g id="Logo">
      <g id="Group_77" data-name="Group 77">
        <g id="Group_76" data-name="Group 76" clip-path="url(#clip-path)">
          <g id="Group_75" data-name="Group 75">
            <g id="Group_74" data-name="Group 74" clip-path="url(#clip-path-2)">
              <rect id="Rectangle_45" data-name="Rectangle 45" width="86.691" height="151.412" transform="translate(160.622 5974.211)" fill="#4e58ff"/>
            </g>
          </g>
        </g>
      </g>
      <g id="Group_81" data-name="Group 81">
        <g id="Group_80" data-name="Group 80" clip-path="url(#clip-path-3)">
          <g id="Group_79" data-name="Group 79">
            <g id="Group_78" data-name="Group 78" clip-path="url(#clip-path-2)">
              <rect id="Rectangle_47" data-name="Rectangle 47" width="55.167" height="40.281" transform="translate(176.384 6069.58)" fill="#fff"/>
            </g>
          </g>
        </g>
      </g>
      <g id="Group_85" data-name="Group 85">
        <g id="Group_84" data-name="Group 84" clip-path="url(#clip-path-5)">
          <g id="Group_83" data-name="Group 83">
            <g id="Group_82" data-name="Group 82" clip-path="url(#clip-path-2)">
              <rect id="Rectangle_49" data-name="Rectangle 49" width="15.762" height="15.762" transform="translate(188.643 6043.31)" fill="#fff"/>
            </g>
          </g>
        </g>
      </g>
      <g id="Group_89" data-name="Group 89">
        <g id="Group_88" data-name="Group 88" clip-path="url(#clip-path-7)">
          <g id="Group_87" data-name="Group 87">
            <g id="Group_86" data-name="Group 86" clip-path="url(#clip-path-2)">
              <rect id="Rectangle_51" data-name="Rectangle 51" width="15.762" height="15.762" transform="translate(204.405 6043.31)" fill="#fff"/>
            </g>
          </g>
        </g>
      </g>
      <g id="Group_93" data-name="Group 93">
        <g id="Group_92" data-name="Group 92" clip-path="url(#clip-path-9)">
          <g id="Group_91" data-name="Group 91">
            <g id="Group_90" data-name="Group 90" clip-path="url(#clip-path-2)">
              <rect id="Rectangle_53" data-name="Rectangle 53" width="55.167" height="56.918" transform="translate(176.384 6014.413)" fill="#fff"/>
            </g>
          </g>
        </g>
      </g>
    </g>
    <g id="Group_97" data-name="Group 97">
      <path id="Path_19" data-name="Path 19" d="M264.826,6086.833v-27.75a1.75,1.75,0,0,1,1.734-1.763h2.5a5.923,5.923,0,0,1,4.923,2.308l16.993,21.553v-21.849a2,2,0,0,1,1.978-2.012h.539a2,2,0,0,1,1.978,2.012v27.749a1.748,1.748,0,0,1-1.734,1.763h-2.419a5.785,5.785,0,0,1-4.879-2.307l-17.122-21.858v22.154a1.994,1.994,0,0,1-1.978,2.011H266.8a2,2,0,0,1-1.978-2.011" fill="#42465e" fill-rule="evenodd"/>
      <g id="Group_96" data-name="Group 96" clip-path="url(#clip-path-11)">
        <g id="Group_95" data-name="Group 95">
          <rect id="Rectangle_55" data-name="Rectangle 55" width="1442.227" height="6219" transform="translate(73.93 5966.251)" fill="#42465e"/>
          <g id="Group_94" data-name="Group 94" clip-path="url(#clip-path-12)">
            <rect id="Rectangle_56" data-name="Rectangle 56" width="39.405" height="40.281" transform="translate(260.448 6052.942)" fill="#42465e"/>
          </g>
        </g>
      </g>
    </g>
    <g id="Group_101" data-name="Group 101">
      <path id="Path_21" data-name="Path 21" d="M301.118,6086.707a2,2,0,0,1,2.206-2,69.187,69.187,0,0,0,13.739.438c4.969-.566,6.179-2.348,6.179-4.393,0-3.044-4.106-4.045-8.858-4.828-6.309-1.218-13.7-2.566-13.655-9.568,0-2.958.605-4.828,2.9-6.568,3.18-2.412,9.879-3.075,22.853-1.911a2.01,2.01,0,0,1-.323,4.006c-16-1.166-18.339.561-18.339,3.646,0,7.394,22.685,1.436,22.685,14.7-.086,3.349-.95,6.045-5.184,7.916-3.869,1.532-10.874,2.2-22.433.829a2.009,2.009,0,0,1-1.766-2Z" fill="#42465e" fill-rule="evenodd"/>
      <g id="Group_100" data-name="Group 100" clip-path="url(#clip-path-13)">
        <g id="Group_99" data-name="Group 99">
          <rect id="Rectangle_58" data-name="Rectangle 58" width="1442.227" height="6391.75" transform="translate(73.93 5962.821)" fill="#42465e"/>
          <g id="Group_98" data-name="Group 98" clip-path="url(#clip-path-14)">
            <rect id="Rectangle_59" data-name="Rectangle 59" width="38.529" height="42.706" transform="translate(296.35 6051.515)" fill="#42465e"/>
          </g>
        </g>
      </g>
    </g>
    <g id="Group_105" data-name="Group 105">
      <path id="Path_23" data-name="Path 23" d="M337.9,6088.844c-2.762,0-3.9-1.132-3.9-3.919v-23.686c0-2.786,1.139-3.919,3.9-3.919h7.717c7.058,0,12.1.915,15.3,2.526a9.585,9.585,0,0,1,3.858,3.179c1.885,2.656,2.5,5.66,2.5,10.057,0,4.355-.614,7.359-2.5,10.015-2.8,3.918-8.462,5.617-19.159,5.747Zm8.506-4.005c5.042,0,8.549-.827,10.435-2.483s2.849-4.745,2.849-9.317c0-4.485-.965-7.576-2.849-9.23s-5.393-2.483-10.435-2.483h-3.683a1.159,1.159,0,0,0-1.316,1.307v20.9a1.159,1.159,0,0,0,1.316,1.307Z" fill="#42465e" fill-rule="evenodd"/>
      <g id="Group_104" data-name="Group 104" clip-path="url(#clip-path-15)">
        <g id="Group_103" data-name="Group 103">
          <rect id="Rectangle_61" data-name="Rectangle 61" width="1442.227" height="6219" transform="translate(73.93 5966.251)" fill="#42465e"/>
          <g id="Group_102" data-name="Group 102" clip-path="url(#clip-path-12)">
            <rect id="Rectangle_62" data-name="Rectangle 62" width="42.032" height="40.281" transform="translate(329.626 6052.942)" fill="#42465e"/>
          </g>
        </g>
      </g>
    </g>
    <g id="Group_109" data-name="Group 109">
      <path id="Path_25" data-name="Path 25" d="M375.559,6088.844c-2.761,0-3.9-1.132-3.9-3.919v-23.686c0-2.786,1.14-3.919,3.9-3.919h7.717c7.058,0,12.1.915,15.3,2.526a9.578,9.578,0,0,1,3.858,3.179c1.885,2.656,2.5,5.66,2.5,10.057,0,4.355-.613,7.359-2.5,10.015-2.806,3.918-8.462,5.617-19.159,5.747Zm8.506-4.005c5.042,0,8.549-.827,10.434-2.483s2.85-4.745,2.85-9.317c0-4.485-.964-7.576-2.85-9.23s-5.392-2.483-10.434-2.483h-3.683a1.158,1.158,0,0,0-1.314,1.307v20.9a1.158,1.158,0,0,0,1.314,1.307Z" fill="#42465e" fill-rule="evenodd"/>
      <g id="Group_108" data-name="Group 108" clip-path="url(#clip-path-17)">
        <g id="Group_107" data-name="Group 107">
          <rect id="Rectangle_64" data-name="Rectangle 64" width="1442.227" height="6219" transform="translate(73.93 5966.251)" fill="#42465e"/>
          <g id="Group_106" data-name="Group 106" clip-path="url(#clip-path-12)">
            <rect id="Rectangle_65" data-name="Rectangle 65" width="42.032" height="40.281" transform="translate(367.28 6052.942)" fill="#42465e"/>
          </g>
        </g>
      </g>
    </g>
    <g id="Group_113" data-name="Group 113">
      <path id="Path_27" data-name="Path 27" d="M410.475,6059.843l-1.064-1.931v2.248h-.485v-2.84h.6a.439.439,0,0,1,.493.3l1.138,2,1.142-2.009a.478.478,0,0,1,.521-.3h.617v2.84h-.781v-2.248l-1.061,1.931a.559.559,0,0,1-.566.345.549.549,0,0,1-.558-.345" fill="#42465e" fill-rule="evenodd"/>
      <g id="Group_112" data-name="Group 112" clip-path="url(#clip-path-19)">
        <g id="Group_111" data-name="Group 111">
          <rect id="Rectangle_67" data-name="Rectangle 67" width="7.265" height="3.503" transform="translate(408.319 6057.177)" fill="#42465e"/>
          <g id="Group_110" data-name="Group 110" clip-path="url(#clip-path-20)">
            <rect id="Rectangle_68" data-name="Rectangle 68" width="15.11" height="11.624" transform="translate(404.386 6052.942)" fill="#42465e"/>
          </g>
        </g>
      </g>
    </g>
    <g id="Group_117" data-name="Group 117">
      <path id="Path_29" data-name="Path 29" d="M406.091,6060.188V6057.7h-1.253v-.38h3.384v.38H406.97v2.487Z" fill="#42465e" fill-rule="evenodd"/>
      <g id="Group_116" data-name="Group 116" clip-path="url(#clip-path-21)">
        <g id="Group_115" data-name="Group 115">
          <rect id="Rectangle_70" data-name="Rectangle 70" width="1442.227" height="5270.446" transform="translate(72.96 5978.657)" fill="#42465e"/>
          <g id="Group_114" data-name="Group 114" clip-path="url(#clip-path-22)">
            <rect id="Rectangle_71" data-name="Rectangle 71" width="11.384" height="9.647" transform="translate(400.46 6053.61)" fill="#42465e"/>
          </g>
        </g>
      </g>
    </g>
  </g>
</svg>
