<svg xmlns="http://www.w3.org/2000/svg" xmlns:xlink="http://www.w3.org/1999/xlink" width="286.308" height="177" viewBox="0 0 286.308 177">
  <defs>
    <clipPath id="clip-path">
      <path id="Clip_22" data-name="Clip 22" d="M0,0H6.64V3.275H0Z" transform="translate(0.669 0.164)" fill="none"/>
    </clipPath>
  </defs>
  <g id="logo-menu" transform="translate(0 0)">
    <path id="Combined_Shape" data-name="Combined Shape" d="M85.865,177H3.136A3.129,3.129,0,0,1,0,173.885V0H89V173.885A3.129,3.129,0,0,1,85.865,177ZM22.494,123A4.482,4.482,0,0,0,18,127.461v27.977A3.521,3.521,0,0,0,21.311,159c.066,0,.123,0,.176,0a3.478,3.478,0,0,0,3.487-3.461V131.058a1.142,1.142,0,0,1,1.145-1.136H52.682a11.437,11.437,0,0,1,7.919,3.157,10.929,10.929,0,0,1,.258,15.642,11.109,11.109,0,0,1-7.99,3.352h-.931l-.465,0v.037a3.455,3.455,0,0,0,0,6.844V159h1.4a18.062,18.062,0,0,0,12.926-5.388A17.806,17.806,0,0,0,71,140.82,18.242,18.242,0,0,0,52.637,123ZM36.363,79.4C26.335,79.4,18.1,87.305,18,97.024A17.518,17.518,0,0,0,23.135,109.6a18.152,18.152,0,0,0,13,5.4H66.506A4.458,4.458,0,0,0,71,110.588V63.423A3.46,3.46,0,0,0,67.512,60c-.047,0-.1,0-.175,0a3.5,3.5,0,0,0-3.31,3.519v43.508a1.135,1.135,0,0,1-1.145,1.122H36.319a11.506,11.506,0,0,1-7.918-3.122,10.725,10.725,0,0,1-.3-15.425,11.164,11.164,0,0,1,8.034-3.361H53.249a3.511,3.511,0,0,0,3.584-3.251,3.364,3.364,0,0,0-.933-2.507A3.534,3.534,0,0,0,53.35,79.4ZM54,93a4,4,0,1,0,4,4A4,4,0,0,0,54,93ZM36,93a4,4,0,1,0,4,4A4,4,0,0,0,36,93Z" fill="#fff"/>
    <path id="Fill_3" data-name="Fill 3" d="M0,33.7V2.013A2,2,0,0,1,1.98,0H4.84a6.763,6.763,0,0,1,5.621,2.635L29.867,27.248V2.3A2.278,2.278,0,0,1,32.126,0h.615A2.277,2.277,0,0,1,35,2.3v31.69A2,2,0,0,1,33.021,36H30.258a6.608,6.608,0,0,1-5.573-2.635L5.133,8.4V33.7A2.277,2.277,0,0,1,2.875,36H2.258A2.278,2.278,0,0,1,0,33.7" transform="translate(114 104)" fill="#fff"/>
    <path id="Fill_5" data-name="Fill 5" d="M.445,32.652a2.261,2.261,0,0,1,2.519-2.22,81.244,81.244,0,0,0,15.69.487c5.675-.628,7.057-2.609,7.057-4.882,0-3.382-4.689-4.494-10.117-5.364C8.39,19.32-.049,17.822,0,10.042c0-3.286.691-5.364,3.307-7.3C6.94.064,14.589-.672,29.406.621a2.255,2.255,0,0,1,2.077,2.225,2.262,2.262,0,0,1-2.446,2.226c-18.268-1.3-20.943.623-20.943,4.051C8.094,17.339,34,10.718,34,25.457c-.1,3.722-1.086,6.717-5.921,8.8-4.418,1.7-12.417,2.442-25.617.921a2.255,2.255,0,0,1-2.017-2.22Z" transform="translate(155 105)" fill="#fff"/>
    <path id="Fill_7" data-name="Fill 7" d="M13.267,36H4.455C1.291,36,0,34.7,0,31.524V4.475C0,1.3,1.291,0,4.455,0h8.812C21.061,0,26.94.97,30.74,2.884a10.983,10.983,0,0,1,4.406,3.631,14.111,14.111,0,0,1,2.234,5A27.929,27.929,0,0,1,38,18c0,5.268-.827,8.581-2.853,11.436a13.647,13.647,0,0,1-7.56,4.9C24.115,35.382,19.431,35.925,13.267,36ZM9.963,4.575a1.327,1.327,0,0,0-1.5,1.492V29.933a1.327,1.327,0,0,0,1.5,1.492h4.206c5.764,0,9.773-.954,11.917-2.835s3.253-5.475,3.253-10.64c0-5.1-1.094-8.645-3.253-10.541S19.932,4.575,14.169,4.575Z" transform="translate(193 104)" fill="#fff"/>
    <path id="Fill_9" data-name="Fill 9" d="M13.268,36H4.456C1.291,36,0,34.7,0,31.524V4.475C0,1.3,1.291,0,4.456,0h8.812C21.06,0,26.939.97,30.74,2.884a10.976,10.976,0,0,1,4.406,3.631,14.111,14.111,0,0,1,2.234,5A27.929,27.929,0,0,1,38,18c0,5.268-.827,8.581-2.853,11.436a13.647,13.647,0,0,1-7.56,4.9C24.116,35.382,19.432,35.925,13.268,36ZM9.963,4.575a1.327,1.327,0,0,0-1.5,1.492V29.933a1.327,1.327,0,0,0,1.5,1.492h4.206c5.765,0,9.774-.954,11.916-2.835,2.159-1.894,3.253-5.473,3.253-10.64,0-5.1-1.095-8.647-3.253-10.541-2.143-1.881-6.152-2.835-11.916-2.835Z" transform="translate(236 104)" fill="#fff"/>
    <g id="Group_23" data-name="Group 23" transform="translate(279 107)">
      <path id="Clip_22-2" data-name="Clip 22" d="M0,0H6.64V3.275H0Z" transform="translate(0.669 0.164)" fill="none"/>
    </g>
  </g>
</svg>
